<?xml version="1.0" encoding="UTF-8"?>
<!--
  Vidmesh lockup — dark-background variant.

  Mark: a play triangle whose three vertices each throw an edge out to a
  mesh node. "The video is one point in a lattice that keeps going."
  Wordmark: "vidmesh" hand-plotted as stroked paths on a shared grid
  (baseline 180, x-height 100, ascender 30, stroke 22, round caps). There
  is no <text> and no font-family anywhere in this file, so the lockup
  renders identically everywhere with nothing to load.

  Colors: paper #E9F0EA for structure, signal lime #A8E01F for the
  triangle — on carbon the bright end of the signal ramp is used at full
  strength (12.5:1 on #0A0C0B).
-->
<svg xmlns="http://www.w3.org/2000/svg" viewBox="0 0 960 256" role="img" aria-label="Vidmesh">
  <title>Vidmesh</title>

  <!-- ============ mark ============ -->
  <g stroke="#E9F0EA" stroke-width="12" stroke-linecap="round" fill="#E9F0EA">
    <path d="M84,72 L56,28" />
    <path d="M84,184 L56,228" />
    <path d="M190,128 L236,128" />
    <circle cx="56" cy="28" r="13" stroke="none" />
    <circle cx="56" cy="228" r="13" stroke="none" />
    <circle cx="236" cy="128" r="13" stroke="none" />
  </g>
  <path d="M84,72 L190,128 L84,184 Z" fill="#A8E01F" stroke="#A8E01F"
        stroke-width="20" stroke-linejoin="round" />

  <!-- ============ wordmark ============ -->
  <g transform="translate(300,23)" fill="none" stroke="#E9F0EA" stroke-width="22"
     stroke-linecap="round" stroke-linejoin="round">
    <g transform="translate(0,0)"><!-- v -->
      <path d="M0,100 L34,180 L68,100" />
    </g>
    <g transform="translate(88,0)"><!-- i -->
      <circle cx="11" cy="74" r="12" fill="#A8E01F" stroke="none" />
      <path d="M11,100 L11,180" />
    </g>
    <g transform="translate(134,0)"><!-- d -->
      <path d="M80,140 C80,118 62,100 40,100 C18,100 0,118 0,140 C0,162 18,180 40,180 C62,180 80,162 80,140" />
      <path d="M80,30 L80,180" />
    </g>
    <g transform="translate(250,0)"><!-- m -->
      <path d="M0,180 L0,100" />
      <path d="M0,124 C0,108 12,100 23,100 C35,100 44,110 44,126 L44,180" />
      <path d="M44,124 C44,108 56,100 67,100 C79,100 88,110 88,126 L88,180" />
    </g>
    <g transform="translate(362,0)"><!-- e -->
      <path d="M2,140 L82,140 C82,118 66,100 42,100 C18,100 2,118 2,140 C2,162 18,180 42,180 C58,180 71,173 78,161" />
    </g>
    <g transform="translate(468,0)"><!-- s -->
      <path d="M62,113 C57,104 48,100 36,100 C21,100 11,108 11,120 C11,144 62,133 62,157 C62,171 50,180 36,180 C22,180 12,174 7,164" />
    </g>
    <g transform="translate(554,0)"><!-- h -->
      <path d="M0,180 L0,30" />
      <path d="M0,124 C0,108 13,100 25,100 C41,100 52,110 52,128 L52,180" />
    </g>
  </g>
</svg>
